<?xml version="1.0" encoding="UTF-8"?>
<svg id="_レイヤー_2" data-name="レイヤー 2" xmlns="http://www.w3.org/2000/svg" viewBox="0 0 319.11 158.2">
  <defs>
    <style>
      .cls-1 {
        fill: #212121;
      }
    </style>
  </defs>
  <g id="_レイヤー_1-2" data-name="レイヤー 1">
    <g>
      <path class="cls-1" d="M8.48.31v2.38h-2.46v14.25h2.18v2.38H.78v-2.38h2.38V2.69H.78V.31h7.7ZM17.5.31v2.38l-2.02.03-5.82,6.55,5.99,7.67h2.04v2.38h-7.73v-2.38h2.04l-5.85-7.67,6.08-6.58h-2.18V.31h7.45Z"/>
      <path class="cls-1" d="M65.96.31v5.71h-2.35v-3.33h-8.09v5.66h7.06v2.38h-7.06v6.22h8.09v-3.47h2.35v5.85h-15.76v-2.38h2.46V2.69h-2.46V.31h15.76Z"/>
      <path class="cls-1" d="M105.15.34l8.23,14.76h.06V2.69h-2.66V.31h7.81v2.38h-2.8v16.83h-3l-9.02-16.24h-.06v13.66h2.74v2.38h-7.81v-2.38h2.72V2.69h-2.72V.31l6.5.03Z"/>
      <path class="cls-1" d="M166.01.31v7.22h-2.35V2.69h-3.92v14.25h2.49v2.38h-7.84v-2.38h2.49V2.69h-3.92v4.84h-2.35V.31h15.4Z"/>
      <path class="cls-1" d="M212.03.31v2.13h-2.24l5.12,14.5h2.13v2.38h-7.45v-2.38h2.35l-1.4-4.31h-6.83l-1.48,4.31h2.32v2.38h-7.5v-2.38h2.3l5.21-14.5h-2.24V.31h9.72ZM207.05,2.44l-2.63,7.98h5.4l-2.52-7.98h-.25Z"/>
      <path class="cls-1" d="M257.74.31c3.05,0,5.91,1.26,5.91,4.96,0,2.18-1.12,4.03-3.92,4.76l3.36,6.92h2.32v2.38h-4.12l-4.31-8.9h-2.72v6.52h2.46v2.38h-7.92v-2.38h2.6V2.69h-2.6V.31h8.93ZM257.6,8.04c1.82,0,3.14-.84,3.14-2.77,0-1.6-1.09-2.58-2.91-2.58h-3.56v5.35h3.33Z"/>
      <path class="cls-1" d="M307.66,0c5.71,0,9.83,4.12,9.83,9.83s-4.12,9.8-9.83,9.8-9.83-4.06-9.83-9.8,4.12-9.83,9.83-9.83ZM300.97,9.83c0,4.09,2.91,7.28,6.69,7.28s6.69-3.19,6.69-7.28-2.83-7.31-6.72-7.31-6.66,3.28-6.66,7.31Z"/>
      <path class="cls-1" d="M7.81,69.6v2.38h-2.38l4.17,5.85,3.84-5.85h-2.38v-2.38h7.59v2.38h-2.52l-5.29,7.98v6.27h2.6v2.38H5.43v-2.38h2.55v-6.27l-5.66-7.98H0v-2.38h7.81Z"/>
      <path class="cls-1" d="M114.41,69.6v2.13h-2.24l5.12,14.5h2.13v2.38h-7.45v-2.38h2.35l-1.4-4.31h-6.83l-1.48,4.31h2.32v2.38h-7.5v-2.38h2.3l5.21-14.5h-2.24v-2.13h9.72ZM109.42,71.72l-2.63,7.98h5.4l-2.52-7.98h-.25Z"/>
      <path class="cls-1" d="M217.02,69.6v7.22h-2.35v-4.84h-3.92v14.25h2.49v2.38h-7.84v-2.38h2.49v-14.25h-3.92v4.84h-2.35v-7.22h15.4Z"/>
      <path class="cls-1" d="M314.1,69.6v2.13h-2.24l5.12,14.5h2.13v2.38h-7.45v-2.38h2.35l-1.4-4.31h-6.83l-1.48,4.31h2.32v2.38h-7.5v-2.38h2.3l5.21-14.5h-2.24v-2.13h9.72ZM309.11,71.72l-2.63,7.98h5.4l-2.52-7.98h-.25Z"/>
      <path class="cls-1" d="M9.41,138.88c3.89,0,6.22,2.18,6.22,5.88,0,1.68-.64,3.53-1.96,4.56-1.12.87-2.72,1.29-4.79,1.29h-2.8v4.9h2.49v2.38H.84v-2.38h2.38v-14.25H.84v-2.38h8.57ZM8.6,148.32c2.77,0,4.12-1.12,4.12-3.58s-1.57-3.47-3.28-3.47h-3.36v7.06h2.52Z"/>
      <path class="cls-1" d="M47.98,138.57c5.71,0,9.83,4.12,9.83,9.83s-4.12,9.8-9.83,9.8-9.83-4.06-9.83-9.8,4.12-9.83,9.83-9.83ZM41.29,148.4c0,4.09,2.91,7.28,6.69,7.28s6.69-3.19,6.69-7.28-2.83-7.31-6.72-7.31-6.66,3.28-6.66,7.31Z"/>
      <path class="cls-1" d="M88.93,138.88c3.05,0,5.91,1.26,5.91,4.96,0,2.18-1.12,4.03-3.92,4.76l3.36,6.92h2.32v2.38h-4.12l-4.31-8.9h-2.72v6.52h2.46v2.38h-7.92v-2.38h2.6v-14.25h-2.6v-2.38h8.93ZM88.79,146.61c1.82,0,3.14-.84,3.14-2.77,0-1.6-1.09-2.58-2.91-2.58h-3.56v5.35h3.33Z"/>
      <path class="cls-1" d="M132.69,138.88v7.22h-2.35v-4.84h-3.92v14.25h2.49v2.38h-7.84v-2.38h2.49v-14.25h-3.92v4.84h-2.35v-7.22h15.4Z"/>
      <path class="cls-1" d="M168.71,138.88v5.71h-2.35v-3.33h-7.14v5.63h6.16v2.38h-6.16v6.24h2.46v2.38h-7.73v-2.38h2.41v-14.25h-2.41v-2.38h14.76Z"/>
      <path class="cls-1" d="M200.56,138.57c5.71,0,9.83,4.12,9.83,9.83s-4.12,9.8-9.83,9.8-9.83-4.06-9.83-9.8,4.12-9.83,9.83-9.83ZM193.87,148.4c0,4.09,2.91,7.28,6.69,7.28s6.69-3.19,6.69-7.28-2.83-7.31-6.72-7.31-6.66,3.28-6.66,7.31Z"/>
      <path class="cls-1" d="M240.4,138.88v2.38h-2.41v14.25h5.94v-6.47h2.63v8.85h-13.94v-2.38h2.52v-14.25h-2.52v-2.38h7.78Z"/>
      <path class="cls-1" d="M275.1,138.88v2.38h-2.07v14.25h2.07v2.38h-7v-2.38h2.07v-14.25h-2.07v-2.38h7Z"/>
      <path class="cls-1" d="M307.66,138.57c5.71,0,9.83,4.12,9.83,9.83s-4.12,9.8-9.83,9.8-9.83-4.06-9.83-9.8,4.12-9.83,9.83-9.83ZM300.96,148.4c0,4.09,2.91,7.28,6.69,7.28s6.69-3.19,6.69-7.28-2.83-7.31-6.72-7.31-6.66,3.28-6.66,7.31Z"/>
    </g>
  </g>
</svg>